# xmcd
#
# Track frame offsets:
#	150
#	16034
#	38958
#	60027
#	80893
#	92170
#	105321
#	123558
#	136609
#	143526
#	159285
#	174551
#	194138
#	216077
#	234501
#
# Disc length: 3321
#
# Revision: 1
# Processed by: cddbd v1.5.1PL0 Copyright (c) Steve Scherf et al.
# Submitted via: audiograbber 1.81.01
# Normalized: r0:DSETVAR1
#
DISCID=bd0cf70f
DTITLE=Various Artist - America's Country
DYEAR=2002
DGENRE=Country
TTITLE0=Johnny Cash/Marty Robbins - Song of the patriot
TTITLE1=Charlie Daniels - Let freedom ring
TTITLE2=Willie Nelson - Bridge over troubled water
TTITLE3=Ricky Skaggs - Somebody's prayin'
TTITLE4=Charlie Rich - America the beautiful
TTITLE5=Waylon Jennings - The eagle
TTITLE6=Mongtgomery Gentry - Tattoos and scars
TTITLE7=Merle Haggard - The fightin' side of me
TTITLE8=Ricochet - The star spangled banner
TTITLE9=Billy Gilman - There's hero
TTITLE10=Joe Diffie - Home
TTITLE11=Billy Ray Cyrus - Some gave all
TTITLE12=Willie Nelson - City of New Orleans
TTITLE13=Patty Loveless - Where I'm bound
TTITLE14=Lee Greenwood - God bless the U.S.A.
EXTD=Chung - PIC
EXTT0=
EXTT1=
EXTT2=
EXTT3=
EXTT4=
EXTT5=
EXTT6=
EXTT7=
EXTT8=
EXTT9=
EXTT10=
EXTT11=
EXTT12=
EXTT13=
EXTT14=
PLAYORDER=
